<svg width="54" height="75" viewBox="0 0 54 75" fill="none" xmlns="http://www.w3.org/2000/svg">
<path d="M7.4 19.9C8.93333 13.7667 12.1667 8.96666 17.1 5.49999C22.0333 2.03333 27.9 0.299995 34.7 0.299995C40.7667 0.299995 45.4 1.7 48.6 4.49999C51.8 7.23333 53.4 10.8667 53.4 15.4C53.4 16.5333 53.3 17.7 53.1 18.9C52.3667 23.0333 50.5667 26.6 47.7 29.6C44.8333 32.6 41.4 34.5333 37.4 35.4V35.9C40.9333 36.7667 43.6667 38.4333 45.6 40.9C47.6 43.3 48.6 46.4333 48.6 50.3C48.6 51.1 48.4667 52.5 48.2 54.5C47.1333 60.3667 44.2667 65.1667 39.6 68.9C35 72.6333 29.0667 74.5 21.8 74.5C15.2667 74.5 10.0667 72.9 6.2 69.7C2.33333 66.5 0.4 61.9333 0.4 56C0.4 54.8 0.433333 53.8667 0.5 53.2H9.3C9.03333 57.2 10.0667 60.4667 12.4 63C14.8 65.5333 18.3333 66.8 23 66.8C27.6 66.8 31.3667 65.6 34.3 63.2C37.2333 60.7333 39.0333 57.5667 39.7 53.7C39.9 52.5667 40 51.5667 40 50.7C40 46.8333 38.5 44.0333 35.5 42.3C32.5 40.5 28 39.6 22 39.6H19.6L21 32H23.5C29.6333 31.9333 34.4333 30.9333 37.9 29C41.3667 27 43.4667 23.9333 44.2 19.8C44.3333 18.7333 44.4 17.9333 44.4 17.4C44.4 14.5333 43.4333 12.2667 41.5 10.6C39.5667 8.93333 36.7333 8.1 33 8.1C28.8667 8.1 25.3333 9.16666 22.4 11.3C19.4667 13.4333 17.4333 16.3 16.3 19.9H7.4Z" fill="#DFD2CD"/>
</svg>
