<svg width="56" height="73" viewBox="0 0 56 73" fill="none" xmlns="http://www.w3.org/2000/svg">
<path d="M1.3 65.7C10.9667 58.8333 18.6 53.2667 24.2 49C29.8 44.6667 34.6333 40.1667 38.7 35.5C42.8333 30.7667 45.3 26.1667 46.1 21.7C46.3 20.5 46.4 19.3 46.4 18.1C46.4 14.9667 45.5 12.5 43.7 10.7C41.9 8.9 39.0333 8 35.1 8C30.6333 8 26.9 9.43333 23.9 12.3C20.9 15.1 18.8667 18.8667 17.8 23.6H9C10.6 16.1333 13.9 10.3667 18.9 6.29999C23.9 2.23333 29.7667 0.199996 36.5 0.199996C42.5 0.199996 47.1667 1.66666 50.5 4.6C53.9 7.53333 55.6 11.6 55.6 16.8C55.6 18.4 55.4667 19.9 55.2 21.3C54.2667 26.6333 51.6667 31.9 47.4 37.1C43.2 42.3 38.6333 46.8667 33.7 50.8C28.7667 54.7333 22.6 59.3333 15.2 64.6H49.6L48.3 72.2H0.1L1.3 65.7Z" fill="#DFD2CD"/>
</svg>
