<svg width="55" height="74" viewBox="0 0 55 74" fill="none" xmlns="http://www.w3.org/2000/svg">
<path d="M53.7 8.59999H18.5L14.5 31.4C16.4333 29.2667 19 27.5333 22.2 26.2C25.4 24.8 28.7333 24.1 32.2 24.1C39.0667 24.1 44.0333 25.8333 47.1 29.3C50.2333 32.7667 51.8 37.1667 51.8 42.5C51.8 44.1667 51.6333 46 51.3 48C49.9667 55.4 46.7667 61.4667 41.7 66.2C36.7 70.8667 30.1667 73.2 22.1 73.2C15.1 73.2 9.73333 71.4 6 67.8C2.33333 64.2 0.566667 59.4 0.7 53.4H9.5C9.7 57.2 11.0333 60.1667 13.5 62.3C15.9667 64.4333 19.3 65.5 23.5 65.5C28.7667 65.5 33.0333 63.9333 36.3 60.8C39.5667 57.6 41.6667 53.4 42.6 48.2C42.8667 46.8667 43 45.4333 43 43.9C43 40.0333 41.8667 37.0667 39.6 35C37.4 32.9333 34.0667 31.9 29.6 31.9C26 31.9 22.7333 32.7667 19.8 34.5C16.9333 36.1667 14.6333 38.4667 12.9 41.4H4.3L11.5 0.599996H55L53.7 8.59999Z" fill="#DFD2CD"/>
</svg>
